Coordinates
version=1
nRows=15
nColumns=23
inDegrees=yes

Units are S.I. units (second, meters, Newtons, ...)
If the header above contains a line with 'inDegrees', this indicates whether rotational values are in degrees (yes) or radians (no).

endheader
time	pelvis_tilt	pelvis_list	pelvis_rotation	pelvis_tx	pelvis_ty	pelvis_tz	hip_flexion_r	hip_adduction_r	hip_rotation_r	knee_angle_r	knee_angle_r_beta	ankle_angle_r	subtalar_angle_r	mtp_angle_r	hip_flexion_l	hip_adduction_l	hip_rotation_l	knee_angle_l	knee_angle_l_beta	ankle_angle_l	subtalar_angle_l	mtp_angle_l
     15.00000000	     -1.28082015	     -7.99818919	     -6.32374679	      2.13220551	      0.82916310	      1.05759308	     24.68305255	     11.18476452	     -1.33341477	     54.26236565	      0.94705694	     23.18207822	    -10.64768491	      0.00000000	      9.73206283	     -9.18830273	     -3.88679315	    111.68423166	      1.94925757	    -13.58359932	     -8.71549009	      0.00000000
     15.00666667	     -1.30886797	     -7.93882400	     -5.52878295	      2.13116711	      0.82992228	      1.05710608	     22.67281133	     10.88106770	     -1.51166326	     53.68601783	      0.93699777	     24.40402296	    -10.44895757	      0.00000000	     12.50722597	     -8.94340752	     -2.31883542	    112.57326154	      1.96477406	    -12.47478114	     -8.83555582	      0.00000000
     15.01333333	     -1.28860664	     -7.80266641	     -4.78299531	      2.13032456	      0.83125545	      1.05662922	     20.44732349	     10.54789234	     -1.60391663	     52.81084388	      0.92172311	     25.44843530	    -10.20746627	      0.00000000	     15.12971580	     -8.53384517	     -0.94366824	    113.02927294	      1.97273296	    -11.39933739	     -9.19165896	      0.00000000
     15.02000000	     -1.23875991	     -7.62901502	     -3.98293138	      2.12983551	      0.83318782	      1.05605502	     18.01624429	     10.17676312	     -1.76116256	     51.58973678	      0.90041077	     26.20123417	     -9.94574328	      0.00000000	     17.60487853	     -8.01507105	      0.32345693	    113.05221739	      1.97313342	    -10.32726614	     -9.72804823	      0.00000000
     15.02666667	     -0.83312392	     -7.46788410	     -3.16525650	      2.12995931	      0.83616287	      1.05539015	     14.96198048	      9.79082865	     -2.00184156	     49.94126889	      0.87163957	     26.68304273	     -9.35767000	      0.00000000	     19.43825631	     -7.47437695	      1.36993138	    112.53955057	      1.96418570	     -9.25171098	    -10.43626076	      0.00000000
     15.03333333	     -0.90191950	     -7.10786540	     -2.44400859	      2.13003108	      0.83900475	      1.05483739	     12.40847149	      9.33433907	     -2.08523342	     48.16958928	      0.84071793	     26.74916889	     -9.17767735	      0.00000000	     21.73037324	     -6.69899099	      2.21250940	    111.71763647	      1.94984059	     -8.28216062	    -11.25715665	      0.00000000
     15.04000000	     -0.61300333	     -6.72774862	     -1.75221622	      2.13065459	      0.84279084	      1.05421428	      9.29841973	      8.81742242	     -2.27412363	     46.06506769	      0.80398710	     26.51454879	     -8.65406461	      0.00000000	     23.34369699	     -5.91929788	      2.79097279	    110.40027816	      1.92684835	     -7.29677500	    -12.24504091	      0.00000000
     15.04666667	     -0.52996735	     -6.20389509	     -1.13225048	      2.13155303	      0.84668190	      1.05358229	      6.38856210	      8.18078671	     -2.49093157	     43.87106581	      0.76569454	     25.91811940	     -8.12541292	      0.00000000	     24.99149363	     -4.99241872	      3.14603154	    108.71794441	      1.89748609	     -6.31680327	    -13.21583964	      0.00000000
     15.05333333	     -0.34083718	     -5.62651838	     -0.63884098	      2.13271707	      0.85108076	      1.05301999	      3.31250651	      7.47688230	     -2.76375653	     41.49965853	      0.72430568	     24.92155627	     -7.36263483	      0.00000000	     26.28181881	     -4.09611590	      3.22103706	    106.64646613	      1.86133197	     -5.32829294	    -14.14988154	      0.00000000
     15.06000000	     -0.21389448	     -4.96535358	     -0.18412461	      2.13419232	      0.85569291	      1.05244747	      0.29181722	      6.67425375	     -3.19627016	     39.02066363	      0.68103906	     23.41811853	     -6.60540053	      0.00000000	     27.43148356	     -3.13904382	      3.15389949	    104.23497681	      1.81924354	     -4.37979961	    -14.94749292	      0.00000000
     15.06666667	     -0.21668652	     -4.23746126	      0.23510783	      2.13589746	      0.86035757	      1.05184657	     -2.55851593	      5.79719574	     -3.80876061	     36.49769724	      0.63700499	     21.39835102	     -5.88006202	      0.00000000	     28.53529989	     -2.12130145	      2.99387783	    101.52120210	      1.77187924	     -3.49750530	    -15.68316387	      0.00000000
     15.07333333	     -0.20509645	     -3.47759208	      0.55589842	      2.13780987	      0.86521955	      1.05138089	     -5.38764086	      4.89943659	     -4.50862156	     33.92874495	      0.59216831	     18.90531270	     -5.11207783	      0.00000000	     29.40804734	     -1.15886873	      2.68580259	     98.49632487	      1.71908517	     -2.64291024	    -16.17002169	      0.00000000
     15.08000000	     -0.26373454	     -2.70447883	      0.81440395	      2.13988235	      0.87008643	      1.05098525	     -8.06373234	      3.98991685	     -5.36485454	     31.38105530	      0.54770274	     15.92530352	     -4.39758530	      0.00000000	     30.17884139	     -0.24464287	      2.29626393	     95.20891180	      1.66170899	     -1.84955808	    -16.50777936	      0.00000000
     15.08666667	     -0.44916591	     -1.92994836	      1.03091736	      2.14206864	      0.87481833	      1.05064248	    -10.49134516	      3.11125057	     -6.29735988	     28.92888579	      0.50490431	     12.61503485	     -3.68765792	      0.00000000	     30.91731151	      0.67622605	      1.91373290	     91.66974057	      1.59993880	     -1.09131079	    -16.65574952	      0.00000000
     15.09333333	     -0.85701087	     -1.14765132	      1.18307214	      2.14425257	      0.87922789	      1.05037063	    -12.48782780	      2.20576695	     -7.36809714	     26.72121882	      0.46637325	      8.98215693	     -3.00608118	      0.00000000	     31.76082548	      1.57780298	      1.49965949	     87.91730051	      1.53444636	     -0.38985535	    -16.52618149	      0.00000000
